<svg id="Capa_1" data-name="Capa 1" xmlns="http://www.w3.org/2000/svg" width="81.7" height="81.7" viewBox="0 0 81.7 81.7"><defs><style>.cls-1{fill:#fff;}</style></defs><ellipse class="cls-1" cx="48.86" cy="40.87" rx="31.93" ry="31.87"/><path d="M49.42,20.93a1.86,1.86,0,0,1,1.3,1.33,1.75,1.75,0,0,1-.83,2,.55.55,0,0,0-.31.57c0,.58,0,1.17,0,1.76,0,.25.07.37.33.38s.73.21,1,0,.18-.6.25-.91a2.46,2.46,0,0,1,.09-.29.57.57,0,0,1,.65-.38.56.56,0,0,1,.49.58,3.55,3.55,0,0,1-.16.92c-.07.29,0,.46.31.49a2.33,2.33,0,0,1,.36.08c.67.2.67.2.95-.45.18-.45.36-.91.56-1.35a.47.47,0,0,0-.07-.52,1.75,1.75,0,0,1-.1-2.13A1.8,1.8,0,1,1,56,25.81a.55.55,0,0,0-.48.38c-.3.76-.62,1.52-.94,2.29-.24.58-.5.69-1.08.48a12.25,12.25,0,0,0-9.63.29,12,12,0,0,0-6.34,6.83,10.89,10.89,0,0,0-.4,6.92,11.93,11.93,0,0,0,5,7.11,11.6,11.6,0,0,0,5,1.94A12.21,12.21,0,0,0,57.1,49.1a11.3,11.3,0,0,0,3.87-7,11.67,11.67,0,0,0-3-10.09,12.17,12.17,0,0,0-2.08-1.77c-.47-.32-.51-.6-.2-1.08s.55-.84.84-1.25a.63.63,0,0,1,1.16.06.3.3,0,0,1,0,.37c-.2.29-.37.6-.58.88a.29.29,0,0,0,.09.49q.38.26.72.54c.11.08.19.09.29,0l1.51-1.51c.16-.15.07-.3,0-.45a1.81,1.81,0,0,1,.78-2,1.83,1.83,0,0,1,2.07.12,1.71,1.71,0,0,1,.59,2.19,1.89,1.89,0,0,1-2.12,1,.57.57,0,0,0-.65.19c-.42.44-.86.87-1.3,1.3-.15.14-.17.26,0,.4a2.09,2.09,0,0,1,.24.28c.47.57.47.57,1.09.16a3.66,3.66,0,0,1,.42-.26.59.59,0,0,1,.65,1,8.13,8.13,0,0,1-.78.52.27.27,0,0,0-.09.46,3.3,3.3,0,0,1,.18.32c.33.61.33.61,1,.36l1.47-.58a.42.42,0,0,0,.31-.4,1.82,1.82,0,0,1,1.77-1.63,1.79,1.79,0,0,1,1.81,1.62,1.69,1.69,0,0,1-.8,1.7,1.71,1.71,0,0,1-2,0,.66.66,0,0,0-.78-.08c-.52.23-1.06.44-1.6.64-.27.1-.35.24-.22.5s.06.78.36.9.63-.07,1-.12a2.3,2.3,0,0,1,.26,0,.57.57,0,0,1,.67.46.58.58,0,0,1-.47.7c-.31.08-.63.14-1,.19s-.3.12-.27.37c.15,1.06.14,1.06,1.2,1.06h1.2a.38.38,0,0,0,.4-.2,1.68,1.68,0,0,1,1.72-1,1.85,1.85,0,0,1,1.69,1.28l0,.07v.9a2,2,0,0,1-2.28,1.3,1.68,1.68,0,0,1-1.1-.84.49.49,0,0,0-.5-.3H62.68c-.23,0-.34.07-.35.32a2.51,2.51,0,0,1-.08.67c-.1.36.1.43.37.47a7.25,7.25,0,0,1,.81.16.59.59,0,0,1,.5.71.57.57,0,0,1-.71.45,8.33,8.33,0,0,1-1-.16c-.19,0-.26,0-.32.2-.37,1.07-.37,1.07.68,1.49.33.14.68.25,1,.4a.55.55,0,0,0,.64-.08,1.79,1.79,0,0,1,2.85,1.12,1.81,1.81,0,0,1-1.35,2.08,1.73,1.73,0,0,1-2.12-1.25,1,1,0,0,0-.87-.9,8.3,8.3,0,0,1-1.24-.51c-.33-.17-.49-.08-.59.23,0,.08-.08.16-.12.24-.33.6-.33.6.26,1a4.67,4.67,0,0,1,.43.3.57.57,0,0,1,.13.8.58.58,0,0,1-.79.19q-.42-.26-.81-.54a.27.27,0,0,0-.42.07c-.09.14-.19.26-.29.39-.39.47-.39.47.05.92s.74.72,1.09,1.09a.46.46,0,0,0,.52.14,1.85,1.85,0,0,1,2.32,2.17A1.93,1.93,0,0,1,61,54.26a1.78,1.78,0,0,1-1.3-2.17.6.6,0,0,0-.19-.66c-.44-.41-.86-.84-1.28-1.27-.14-.15-.25-.21-.43,0a6.82,6.82,0,0,1-.69.51.27.27,0,0,0-.08.44c.18.25.35.52.52.78a.51.51,0,0,1-.15.79.57.57,0,0,1-.81-.08,7.49,7.49,0,0,1-.45-.65c-.28-.41-.28-.41-.71-.16-.77.44-.77.44-.44,1.25a5.25,5.25,0,0,1,.22.55,1.36,1.36,0,0,0,1.1,1.08,1.72,1.72,0,0,1,1,2.4,1.8,1.8,0,1,1-3.14-1.73.74.74,0,0,0,.08-.87c-.23-.49-.43-1-.62-1.49-.09-.24-.21-.31-.46-.22a4.2,4.2,0,0,1-.79.22c-.22.05-.29.15-.23.37a8,8,0,0,1,.16.85.6.6,0,0,1-.45.75.62.62,0,0,1-.73-.53c0-.14-.06-.27-.08-.41-.15-.71-.15-.71-.86-.63l-.41,0a.23.23,0,0,0-.25.26q0,1,0,2.07c0,.21.16.26.3.35a1.73,1.73,0,0,1,.88,1.73,1.7,1.7,0,0,1-1.33,1.55,1.77,1.77,0,0,1-1.76-.47,1.61,1.61,0,0,1-.51-1.77,1.93,1.93,0,0,1,.92-1,.46.46,0,0,0,.27-.47c0-.61,0-1.23,0-1.84,0-.25-.08-.36-.34-.37a6.13,6.13,0,0,1-.85-.09c-.21,0-.27.05-.3.22s-.12.59-.19.88a.6.6,0,0,1-.7.52.59.59,0,0,1-.47-.73,6.63,6.63,0,0,1,.16-.89c.05-.2,0-.31-.21-.34l-.4-.11c-.67-.2-.67-.2-.94.46-.19.45-.37.9-.57,1.35a.46.46,0,0,0,.07.51,1.75,1.75,0,0,1,.1,2.13,1.84,1.84,0,0,1-1.93.77A1.8,1.8,0,0,1,42,54.5a.51.51,0,0,0,.48-.37c.22-.56.44-1.12.69-1.67.11-.24.06-.37-.18-.46h0c-.32-.14-.62-.48-.95-.4s-.39.52-.6.78a1.07,1.07,0,0,1-.22.25.53.53,0,0,1-.72,0,.54.54,0,0,1-.19-.73,6.64,6.64,0,0,1,.51-.79c.18-.24.14-.39-.1-.55a4,4,0,0,1-.55-.45c-.14-.14-.25-.16-.4,0q-.7.74-1.44,1.44c-.18.17-.1.33-.06.51a1.83,1.83,0,0,1-.87,2A1.92,1.92,0,0,1,35,53.67a1.84,1.84,0,0,1-.16-2.11,1.79,1.79,0,0,1,2-.79.55.55,0,0,0,.65-.17c.4-.43.82-.85,1.25-1.25.2-.19.26-.34,0-.54s-.34-.64-.65-.7-.54.31-.83.45a2.53,2.53,0,0,1-.37.18.55.55,0,0,1-.73-.28.53.53,0,0,1,.14-.74,3.82,3.82,0,0,1,.79-.51c.34-.15.31-.33.12-.57s-.16-.18-.23-.29c-.33-.55-.33-.55-.91-.31l-1.38.57a.46.46,0,0,0-.34.43,1.84,1.84,0,0,1-1.82,1.62,1.81,1.81,0,0,1-1.85-1.72,1.67,1.67,0,0,1,.87-1.63,1.73,1.73,0,0,1,2,0,.71.71,0,0,0,.82.08c.51-.24,1-.44,1.55-.65.23-.09.29-.21.2-.43a1.73,1.73,0,0,1-.11-.32c-.21-.69-.21-.69-.94-.56a3.43,3.43,0,0,1-.56.08.59.59,0,0,1-.18-1.15c.31-.09.64-.14,1-.2s.3-.1.27-.35c-.14-1.08-.13-1.09-1.24-1.09a4.69,4.69,0,0,1-.53,0,1.12,1.12,0,0,0-1.21.54,1.82,1.82,0,0,1-3.08-1.85,1.78,1.78,0,0,1,2.15-1,1.68,1.68,0,0,1,1.16.88.39.39,0,0,0,.41.24H35.2c.22,0,.31-.08.33-.3a5.71,5.71,0,0,1,.09-.82c0-.21,0-.27-.22-.3s-.59-.11-.88-.19a.6.6,0,1,1,.21-1.17,8.74,8.74,0,0,1,.89.17c.2,0,.3,0,.34-.22s.08-.29.12-.43c.22-.72.29-.58-.4-.88-.45-.2-.91-.36-1.35-.57a.55.55,0,0,0-.64.09,1.77,1.77,0,0,1-2,.14,1.71,1.71,0,0,1-1-1.58,1.85,1.85,0,0,1,3.6-.57,1.42,1.42,0,0,1,.08.4.39.39,0,0,0,.3.38l1.77.73c.15.06.29.11.37-.09a4,4,0,0,1,.48-.75c.15-.19.1-.33-.11-.44a8.24,8.24,0,0,1-.8-.5.58.58,0,0,1-.19-.82A.59.59,0,0,1,37,31.6a4,4,0,0,1,.87.52c.21.16.36.13.49-.08s.59-.5.58-.8-.43-.49-.65-.74l-.37-.38a1.25,1.25,0,0,0-1.38-.55,1.58,1.58,0,0,1-1.76-.94,1.83,1.83,0,1,1,3.42-.36.48.48,0,0,0,.15.56c.44.43.88.86,1.3,1.31.19.2.34.21.51,0a.86.86,0,0,1,.14-.13c.64-.54.64-.54.17-1.26a2,2,0,0,1-.2-.31.58.58,0,0,1,.19-.79.56.56,0,0,1,.8.14,8.72,8.72,0,0,1,.55.8.27.27,0,0,0,.37.12c1.11-.42,1.12-.43.68-1.5,0-.14-.12-.28-.16-.42-.19-.56-.4-1-1.12-1.08A1.69,1.69,0,0,1,40.32,24a1.83,1.83,0,0,1,1.23-1.72,1.87,1.87,0,0,1,2.09.6A1.74,1.74,0,0,1,43.7,25a.71.71,0,0,0-.08.84c.23.49.43,1,.62,1.49.1.25.21.35.48.24a2.36,2.36,0,0,1,.64-.19c.3-.06.36-.2.29-.48a4,4,0,0,1-.15-.84A.57.57,0,0,1,46,25.4a.59.59,0,0,1,.67.47c.08.31.14.63.2.95,0,.16.09.24.28.21a4.78,4.78,0,0,1,.74-.08c.38,0,.5-.15.48-.52,0-.54,0-1.08,0-1.61a.61.61,0,0,0-.33-.6,1.81,1.81,0,0,1-.88-1,1.77,1.77,0,0,1,1-2.1,3.68,3.68,0,0,1,.35-.15ZM42.17,24.6a.56.56,0,0,0,.62-.58.58.58,0,0,0-.63-.59.57.57,0,0,0-.6.57A.56.56,0,0,0,42.17,24.6Zm-.61,31.68a.62.62,0,0,0,1.23,0,.55.55,0,0,0-.59-.61A.56.56,0,0,0,41.56,56.28Zm-9-10a.73.73,0,0,0-.65.57.71.71,0,0,0,.67.59.58.58,0,0,0,0-1.16Zm.58-12.77a.55.55,0,0,0-.57-.6.58.58,0,1,0,0,1.16A.55.55,0,0,0,33.19,33.49Zm32.12-.6a.58.58,0,1,0,0,1.16.56.56,0,0,0,.56-.58A.57.57,0,0,0,65.31,32.89Zm.59,14a.57.57,0,0,0-.6-.58.58.58,0,0,0,0,1.16A.56.56,0,0,0,65.9,46.84ZM55.71,23.43a.58.58,0,0,0-.57.61.58.58,0,0,0,1.16,0A.57.57,0,0,0,55.71,23.43Zm0,33.45a.57.57,0,0,0,.58-.59.55.55,0,0,0-.6-.57.54.54,0,0,0-.56.56A.57.57,0,0,0,55.72,56.88Zm10.91-17.3a.61.61,0,0,0-.59.56.6.6,0,0,0,1.2,0A.61.61,0,0,0,66.63,39.58ZM61.46,27.24a.57.57,0,0,0-.6.58.63.63,0,0,0,.58.59.58.58,0,0,0,.58-.6A.52.52,0,0,0,61.46,27.24Zm-25,0a.53.53,0,0,0-.59.55.59.59,0,0,0,.57.62.64.64,0,0,0,.6-.57A.58.58,0,0,0,36.42,27.24ZM37,52.49a.63.63,0,0,0-.59-.58.57.57,0,0,0-.58.6.53.53,0,0,0,.57.56A.57.57,0,0,0,37,52.49Zm24.4.58a.53.53,0,0,0,.62-.5.58.58,0,0,0-.52-.66.62.62,0,0,0-.64.56A.57.57,0,0,0,61.4,53.07ZM49.55,22.68a.59.59,0,0,0-1.17,0,.62.62,0,0,0,.59.61A.61.61,0,0,0,49.55,22.68ZM31.22,40.74a.61.61,0,0,0,.59-.6.6.6,0,0,0-.62-.56.58.58,0,1,0,0,1.16ZM49.55,57.63a.59.59,0,1,0-1.17,0,.59.59,0,1,0,1.17,0Z"/><path d="M60,40.16A1.83,1.83,0,0,1,58.13,42a1.82,1.82,0,1,1,0-3.63A1.83,1.83,0,0,1,60,40.16Zm-1.82.58a.58.58,0,1,0,0-1.16.6.6,0,0,0-.64.58A.61.61,0,0,0,58.13,40.74Z"/><path d="M49,29.32a1.82,1.82,0,0,1,1.82,1.81A1.85,1.85,0,0,1,49,32.94a2,2,0,0,1-1.91-1.8A1.91,1.91,0,0,1,49,29.32Zm.59,1.82a.56.56,0,0,0-.59-.59.55.55,0,0,0-.57.59.57.57,0,0,0,.56.58A.58.58,0,0,0,49.55,31.14Z"/><path d="M42.49,32a1.83,1.83,0,0,1,1.83,1.8A1.85,1.85,0,1,1,42.49,32Zm0,2.39a.56.56,0,0,0,.61-.59.62.62,0,1,0-.61.59Z"/><path d="M52.63,38.34a1.82,1.82,0,1,1-1.87,1.81A1.85,1.85,0,0,1,52.63,38.34Zm0,1.23a.59.59,0,1,0,0,1.17.57.57,0,0,0,.59-.59A.58.58,0,0,0,52.6,39.57Z"/><path d="M49,51a1.93,1.93,0,0,1-1.88-1.81A2,2,0,0,1,49,47.37a1.86,1.86,0,0,1,1.8,1.85A1.82,1.82,0,0,1,49,51Zm0-1.23a.55.55,0,0,0,.59-.58.57.57,0,0,0-.6-.58.56.56,0,0,0-.56.57A.54.54,0,0,0,49,49.76Z"/><path d="M50.78,36.53A1.86,1.86,0,0,1,49,38.36a1.82,1.82,0,1,1,0-3.63A1.85,1.85,0,0,1,50.78,36.53ZM49,36a.58.58,0,0,0,0,1.16A.58.58,0,1,0,49,36Z"/><path d="M49,45.58a2,2,0,0,1-1.88-1.82A2,2,0,0,1,49,42a1.87,1.87,0,0,1,1.8,1.81A1.85,1.85,0,0,1,49,45.58Zm0-2.39a.55.55,0,0,0-.56.6.58.58,0,1,0,.56-.6Z"/><path d="M38,40.16a1.82,1.82,0,0,1,1.81-1.82,1.82,1.82,0,0,1,0,3.63A1.82,1.82,0,0,1,38,40.16Zm1.82-.58a.55.55,0,0,0-.59.58.56.56,0,0,0,.58.58.58.58,0,0,0,0-1.16Z"/><path d="M45.26,42a1.82,1.82,0,0,1,0-3.63,1.82,1.82,0,1,1,0,3.63Zm0-1.23a.58.58,0,0,0,0-1.16.56.56,0,0,0-.61.56A.57.57,0,0,0,45.28,40.74Z"/><path d="M57.24,46.53a1.82,1.82,0,1,1-1.84-1.8A1.85,1.85,0,0,1,57.24,46.53Zm-1.24,0a.56.56,0,0,0-.6-.57.58.58,0,0,0,0,1.16A.55.55,0,0,0,56,46.53Z"/><path d="M42.47,48.36a1.8,1.8,0,0,1-1.64-1A1.69,1.69,0,0,1,41,45.52c.27-.42.62-.53.94-.33s.35.55.07,1a.59.59,0,0,0,0,.76.65.65,0,0,0,.79.13c.08,0,.14-.1.22-.15a.62.62,0,0,1,.81.11.58.58,0,0,1-.06.81A1.77,1.77,0,0,1,42.47,48.36Z"/><path d="M55.41,35.59a1.84,1.84,0,0,1-1.61-1A1.72,1.72,0,0,1,54,32.68c.28-.38.64-.46.94-.24s.3.56,0,.93a.58.58,0,0,0,0,.82.57.57,0,0,0,.81,0,.61.61,0,1,1,.7,1A1.93,1.93,0,0,1,55.41,35.59Z"/><path d="M53.1,48.51a.64.64,0,0,1-1.28,0,.64.64,0,0,1,1.28,0Z"/><path d="M53.25,43.79a.63.63,0,0,1-.66.59.63.63,0,0,1-.62-.63.64.64,0,0,1,1.28,0Z"/><path d="M53.25,36.54a.64.64,0,0,1-1.28,0,.62.62,0,0,1,.64-.6A.62.62,0,0,1,53.25,36.54Z"/><path d="M52.45,32.42a.64.64,0,0,1-.63-.62.64.64,0,0,1,1.28,0A.65.65,0,0,1,52.45,32.42Z"/><path d="M57.4,37.3a.62.62,0,0,1-.62-.58.63.63,0,0,1,.58-.62.64.64,0,0,1,.7.58A.63.63,0,0,1,57.4,37.3Z"/><path d="M58.06,43.6a.63.63,0,0,1-.66.62.64.64,0,0,1-.62-.59.65.65,0,0,1,.59-.62A.64.64,0,0,1,58.06,43.6Z"/><path d="M41.08,43.62a.64.64,0,0,1-.61.6.62.62,0,0,1-.59-.61.62.62,0,0,1,.6-.6A.64.64,0,0,1,41.08,43.62Z"/><path d="M45.88,43.79a.6.6,0,1,1-.59-.62A.63.63,0,0,1,45.88,43.79Z"/><path d="M45.88,36.54a.6.6,0,1,1-.6-.6A.62.62,0,0,1,45.88,36.54Z"/><path d="M45.45,31.21a.62.62,0,0,1,.59.61.64.64,0,0,1-.61.6.63.63,0,0,1-.59-.62A.61.61,0,0,1,45.45,31.21Z"/><path d="M46,48.5a.62.62,0,0,1-.59.61.61.61,0,0,1,0-1.21A.64.64,0,0,1,46,48.5Z"/><path d="M40.47,36.1a.6.6,0,1,1,0,1.2.61.61,0,0,1-.61-.59A.62.62,0,0,1,40.47,36.1Z"/></svg>