<svg id="Capa_1" data-name="Capa 1" xmlns="http://www.w3.org/2000/svg" width="30.67" height="25.79" viewBox="0 0 30.67 25.79"><defs><style>.cls-1{fill:none;stroke:#fff;stroke-miterlimit:10;}</style></defs><path class="cls-1" d="M15.54,1.77c-3.22,0-3.63,0-4.89.07a9.13,9.13,0,0,0-2.88.53A5.9,5.9,0,0,0,5.66,3.68a5.59,5.59,0,0,0-1.37,2,8.1,8.1,0,0,0-.55,2.75c-.06,1.21-.07,1.59-.07,4.67s0,3.46.07,4.67a8.22,8.22,0,0,0,.55,2.76,5.64,5.64,0,0,0,1.37,2,5.9,5.9,0,0,0,2.11,1.31,9.13,9.13,0,0,0,2.88.53c1.26.05,1.67.07,4.89.07s3.63,0,4.9-.07a9.25,9.25,0,0,0,2.88-.53,5.86,5.86,0,0,0,2.1-1.31,5.52,5.52,0,0,0,1.37-2,8.22,8.22,0,0,0,.55-2.76c.06-1.21.07-1.59.07-4.67s0-3.46-.07-4.67a8.1,8.1,0,0,0-.55-2.75,5.47,5.47,0,0,0-1.37-2,5.86,5.86,0,0,0-2.1-1.31,9.25,9.25,0,0,0-2.88-.53c-1.27-.05-1.67-.07-4.9-.07"/><path class="cls-1" d="M15.45,8.29a5.07,5.07,0,1,0,5,5.07,5,5,0,0,0-5-5.07"/><path class="cls-1" d="M23.3,7.06A1.43,1.43,0,1,1,21.88,5.7,1.39,1.39,0,0,1,23.3,7.06"/></svg>