<svg id="Capa_1" data-name="Capa 1" xmlns="http://www.w3.org/2000/svg" width="83.74" height="81.7" viewBox="0 0 83.74 81.7"><defs><style>.cls-1{fill:#fff;}</style></defs><ellipse class="cls-1" cx="50.87" cy="41.49" rx="31.93" ry="31.87"/><path d="M50.79,22.45c3.71.44,7.12,1.64,9.44,4.75a12.12,12.12,0,0,1,1.58,12.52,94.5,94.5,0,0,1-4.57,9.18c-1.82,3.34-3.67,6.65-5.52,10-.23.41-.38.92-1,.91s-.74-.54-1-.95c-2-3.68-4.14-7.35-6.13-11.06a78.2,78.2,0,0,1-4-8.18,12.21,12.21,0,0,1,1-11.41,11.92,11.92,0,0,1,6.73-5.05A10.7,10.7,0,0,1,50.79,22.45Zm0,34.92c1.2-2.18,2.31-4.3,3.52-6.36,1.53-2.62,2.93-5.31,4.33-8a34.12,34.12,0,0,0,2-4.37A10.35,10.35,0,0,0,58,27a10.54,10.54,0,0,0-17.19,4.33,10.82,10.82,0,0,0-.46,4.93c.32,2.51,1.54,4.68,2.63,6.86C45.35,47.93,48.05,52.6,50.77,57.37Z"/><path d="M50.75,28.58a6.22,6.22,0,1,1-6.2,6.19A6.1,6.1,0,0,1,50.75,28.58Zm-4.66,6.26a4.67,4.67,0,1,0,4.66-4.79A4.65,4.65,0,0,0,46.09,34.84Z"/></svg>