<svg id="Capa_1" data-name="Capa 1" xmlns="http://www.w3.org/2000/svg" width="30.67" height="25.79" viewBox="0 0 30.67 25.79"><defs><style>.cls-1{fill:none;stroke:#fff;stroke-miterlimit:10;}</style></defs><path class="cls-1" d="M3,21.87a13.25,13.25,0,0,0,7.81,2.58c9.47,0,14.81-9,14.49-17a11.22,11.22,0,0,0,2.55-3,9.59,9.59,0,0,1-2.93.9,5.68,5.68,0,0,0,2.24-3.17,9.61,9.61,0,0,1-3.24,1.39,4.85,4.85,0,0,0-3.72-1.81c-3.29,0-5.71,3.45-5,7a14,14,0,0,1-10.5-6,6.15,6.15,0,0,0,1.58,7.64A4.68,4.68,0,0,1,4,9.75a5.62,5.62,0,0,0,4.09,5.68,4.56,4.56,0,0,1-2.3.1,5.21,5.21,0,0,0,4.76,4A9.43,9.43,0,0,1,3,21.87Z"/></svg>