<svg id="Capa_1" data-name="Capa 1" xmlns="http://www.w3.org/2000/svg" width="80.68" height="81.7" viewBox="0 0 80.68 81.7"><defs><style>.cls-1{fill:#fff;}</style></defs><ellipse class="cls-1" cx="48.36" cy="40.87" rx="31.93" ry="31.87"/><path d="M52.77,52.71c-4.22,0-8.45,0-12.68,0a3.76,3.76,0,0,1-3.68-4.62.51.51,0,0,0-.28-.66,9.84,9.84,0,0,1-3.44-3.8,10.29,10.29,0,0,1-1.22-3.94,10.82,10.82,0,0,1,.6-4.95A10.6,10.6,0,0,1,34.5,30.9,10.89,10.89,0,0,1,35.59,30a9.77,9.77,0,0,1,6.48-2.1,9.54,9.54,0,0,1,4.86,1.38,10.29,10.29,0,0,1,2.83,2.43,11.88,11.88,0,0,1,.81,1.19c.13.21.23.25.45.1a9.79,9.79,0,0,1,4.45-1.71,9.27,9.27,0,0,1,4.28.46A10.2,10.2,0,0,1,63.52,34a10.43,10.43,0,0,1,3,6.33,6.7,6.7,0,0,1,0,1,.31.31,0,0,0,.28.36,5,5,0,0,1,2.58,1.6,5.71,5.71,0,0,1,.18,7.34,5.06,5.06,0,0,1-4.24,2Zm0-1.15H65.19A4.2,4.2,0,0,0,68,50.65a4.47,4.47,0,0,0-1.83-7.91c-.62-.1-.74-.23-.71-.86a9.37,9.37,0,0,0-.42-3.2A9,9,0,0,0,61.64,34a8.7,8.7,0,0,0-10.57.4,9.25,9.25,0,0,0-2.91,4.39c-.19.62-.34.74-1,.62a4.61,4.61,0,0,0-5.34,3.31,4.69,4.69,0,0,0,0,2.65.65.65,0,0,1-.63.91c-.29,0-.57,0-.86,0a3.26,3.26,0,0,0-1.12.11A2.59,2.59,0,0,0,37.5,49a2.68,2.68,0,0,0,1.91,2.43,3.92,3.92,0,0,0,1,.09ZM40.47,44.2a6,6,0,0,1,3-5.35,5.27,5.27,0,0,1,3.32-.69c.24,0,.33,0,.4-.25a11,11,0,0,1,.82-1.77,13.22,13.22,0,0,1,1.59-2,.31.31,0,0,0,0-.45,10.74,10.74,0,0,0-1.55-2,9,9,0,0,0-4.22-2.35,8.08,8.08,0,0,0-5.09.28A9.14,9.14,0,0,0,35,32.13a10.13,10.13,0,0,0-1.53,2.3,9.62,9.62,0,0,0,3.33,12,.27.27,0,0,0,.43,0,3.31,3.31,0,0,1,.61-.63,3.57,3.57,0,0,1,2.32-.71c.36,0,.38,0,.34-.38C40.49,44.52,40.48,44.32,40.47,44.2Z"/><path d="M33.27,30.37a.88.88,0,0,1-.49-.21L30,27.34a.68.68,0,0,1,0-.92.61.61,0,0,1,.9,0c.6.59,1.17,1.21,1.76,1.81.31.32.64.62,1,.95a.65.65,0,0,1-.16,1.09A.83.83,0,0,1,33.27,30.37Z"/><path d="M27.71,39.13H25.82a.64.64,0,0,1-.68-.63.58.58,0,0,1,.66-.6h3.82a.62.62,0,1,1,0,1.24Z"/><path d="M53.13,26.26a.49.49,0,0,1,.52.33.67.67,0,0,1-.13.74c-.31.33-.64.64-1,1-.6.61-1.19,1.23-1.78,1.84a.61.61,0,0,1-.69.19.57.57,0,0,1-.38-.54.7.7,0,0,1,.24-.55L51.3,27.9l1.35-1.42A.58.58,0,0,1,53.13,26.26Z"/><path d="M41.2,24c0-.65,0-1.3,0-1.95,0-.42.2-.64.55-.65s.61.21.62.64q0,2,0,4a.59.59,0,1,1-1.17,0C41.19,25.38,41.2,24.71,41.2,24Z"/><path d="M30.46,50.73a.59.59,0,0,1-.55-.86A1,1,0,0,1,30,49.7c.91-.93,1.81-1.86,2.72-2.78a.59.59,0,0,1,.87-.09.56.56,0,0,1,0,.84c-.9,1-1.83,1.93-2.79,2.86A.69.69,0,0,1,30.46,50.73Z"/><path d="M28.92,44.59a.55.55,0,0,1-.6-.42.64.64,0,0,1,.27-.72c.62-.27,1.25-.54,1.89-.78a.54.54,0,0,1,.67.28.65.65,0,0,1-.23.83c-.63.29-1.28.54-1.92.8Z"/><path d="M37.74,27.07a.58.58,0,0,1-.46.6.56.56,0,0,1-.65-.33c-.26-.63-.52-1.26-.75-1.89-.12-.31,0-.59.39-.76a.44.44,0,0,1,.61.24A12.7,12.7,0,0,1,37.74,27Z"/><path d="M47.7,25.37a16,16,0,0,1-.91,2.13.49.49,0,0,1-.69.11.62.62,0,0,1-.27-.72c.11-.32.25-.64.39-1a10.07,10.07,0,0,1,.41-.95.52.52,0,0,1,.57-.32A.69.69,0,0,1,47.7,25.37Z"/><path d="M28.92,32.44a1.86,1.86,0,0,1,.26.08l1.64.67a.59.59,0,0,1,.34.8c-.15.38-.4.52-.77.34-.59-.29-1.19-.52-1.78-.79a.58.58,0,0,1,.31-1.1Z"/></svg>