<svg id="Capa_1" data-name="Capa 1" xmlns="http://www.w3.org/2000/svg" width="30.67" height="25.79" viewBox="0 0 30.67 25.79"><defs><style>.cls-1{fill:none;stroke:#fff;stroke-miterlimit:10;}</style></defs><path class="cls-1" d="M28.45,6a3.53,3.53,0,0,0-2.36-2.6C24,2.78,15.68,2.78,15.68,2.78s-8.34,0-10.42.61A3.54,3.54,0,0,0,2.9,6a42.07,42.07,0,0,0-.56,7.09,42.07,42.07,0,0,0,.56,7.09,3.54,3.54,0,0,0,2.36,2.6c2.08.61,10.42.61,10.42.61s8.34,0,10.41-.61a3.53,3.53,0,0,0,2.36-2.6A42.07,42.07,0,0,0,29,13.08,42.07,42.07,0,0,0,28.45,6Z"/><polygon class="cls-1" points="12.95 17.43 12.95 8.73 19.92 13.08 12.95 17.43"/></svg>